<mxfile host="app.diagrams.net" modified="2023-06-14T09:59:39.923Z" agent="Mozilla/5.0 (Windows NT 10.0; Win64; x64) AppleWebKit/537.36 (KHTML, like Gecko) Chrome/111.0.0.0 Safari/537.36" etag="V9Nz5_8pI6uJfZKhcsZE" version="21.3.8" type="github">
  <diagram id="6a731a19-8d31-9384-78a2-239565b7b9f0" name="Page-1">
    <mxGraphModel dx="2390" dy="1273" grid="1" gridSize="10" guides="1" tooltips="1" connect="1" arrows="1" fold="1" page="1" pageScale="1" pageWidth="827" pageHeight="1169" background="none" math="0" shadow="0">
      <root>
        <mxCell id="0" />
        <mxCell id="1" parent="0" />
        <mxCell id="bWI8IQ_tB8MIXJz7y7Ok-2258" style="edgeStyle=orthogonalEdgeStyle;rounded=0;orthogonalLoop=1;jettySize=auto;html=1;exitX=0.89;exitY=0.87;exitDx=0;exitDy=0;exitPerimeter=0;" edge="1" parent="1" source="2109" target="bWI8IQ_tB8MIXJz7y7Ok-2257">
          <mxGeometry relative="1" as="geometry" />
        </mxCell>
        <mxCell id="2109" value="Internet" style="shape=mxgraph.cisco.storage.cloud;html=1;dashed=0;strokeColor=#23445D;fillColor=#ffffff;strokeWidth=2;fontFamily=Helvetica;fontSize=24;fontColor=#23445D;align=center;fontStyle=1" parent="1" vertex="1">
          <mxGeometry x="54" y="292" width="186" height="106" as="geometry" />
        </mxCell>
        <mxCell id="bWI8IQ_tB8MIXJz7y7Ok-2262" style="edgeStyle=orthogonalEdgeStyle;rounded=0;orthogonalLoop=1;jettySize=auto;html=1;exitX=0.98;exitY=0.5;exitDx=0;exitDy=0;exitPerimeter=0;entryX=0;entryY=0.5;entryDx=0;entryDy=0;entryPerimeter=0;" edge="1" parent="1" source="2116" target="bWI8IQ_tB8MIXJz7y7Ok-2261">
          <mxGeometry relative="1" as="geometry" />
        </mxCell>
        <mxCell id="2116" value="" style="shape=mxgraph.cisco.switches.workgroup_switch;html=1;dashed=0;fillColor=#10739E;strokeColor=#ffffff;strokeWidth=2;verticalLabelPosition=bottom;verticalAlign=top;fontFamily=Helvetica;fontSize=36;fontColor=#FFB366" parent="1" vertex="1">
          <mxGeometry x="294" y="630" width="101" height="50" as="geometry" />
        </mxCell>
        <mxCell id="bWI8IQ_tB8MIXJz7y7Ok-2260" style="edgeStyle=orthogonalEdgeStyle;rounded=0;orthogonalLoop=1;jettySize=auto;html=1;exitX=0.5;exitY=1;exitDx=0;exitDy=0;exitPerimeter=0;entryX=0.528;entryY=0.247;entryDx=0;entryDy=0;entryPerimeter=0;" edge="1" parent="1" source="bWI8IQ_tB8MIXJz7y7Ok-2257" target="2116">
          <mxGeometry relative="1" as="geometry" />
        </mxCell>
        <mxCell id="bWI8IQ_tB8MIXJz7y7Ok-2257" value="" style="shape=mxgraph.cisco.routers.router;sketch=0;html=1;pointerEvents=1;dashed=0;fillColor=#036897;strokeColor=#ffffff;strokeWidth=2;verticalLabelPosition=bottom;verticalAlign=top;align=center;outlineConnect=0;" vertex="1" parent="1">
          <mxGeometry x="301" y="477" width="91" height="60" as="geometry" />
        </mxCell>
        <mxCell id="bWI8IQ_tB8MIXJz7y7Ok-2261" value="" style="shape=mxgraph.cisco.misc.access_point;html=1;dashed=0;fillColor=#10739E;strokeColor=#ffffff;strokeWidth=2;verticalLabelPosition=bottom;verticalAlign=top;fontFamily=Helvetica;fontSize=36;fontColor=#FFB366" vertex="1" parent="1">
          <mxGeometry x="489" y="630" width="88" height="52" as="geometry" />
        </mxCell>
        <mxCell id="bWI8IQ_tB8MIXJz7y7Ok-2263" value="" style="shape=mxgraph.cisco.modems_and_phones.rf_modem;sketch=0;html=1;pointerEvents=1;dashed=0;fillColor=#036897;strokeColor=#ffffff;strokeWidth=2;verticalLabelPosition=bottom;verticalAlign=top;align=center;outlineConnect=0;" vertex="1" parent="1">
          <mxGeometry x="521" y="846" width="82" height="42" as="geometry" />
        </mxCell>
        <mxCell id="bWI8IQ_tB8MIXJz7y7Ok-2265" value="" style="shape=mxgraph.cisco.computers_and_peripherals.terminal;sketch=0;html=1;pointerEvents=1;dashed=0;fillColor=#036897;strokeColor=#ffffff;strokeWidth=2;verticalLabelPosition=bottom;verticalAlign=top;align=center;outlineConnect=0;" vertex="1" parent="1">
          <mxGeometry x="899" y="829.5" width="61" height="54" as="geometry" />
        </mxCell>
        <mxCell id="bWI8IQ_tB8MIXJz7y7Ok-2267" value="" style="line;strokeWidth=4;html=1;perimeter=backbonePerimeter;points=[];outlineConnect=0;" vertex="1" parent="1">
          <mxGeometry x="489" y="736" width="690" height="10" as="geometry" />
        </mxCell>
        <mxCell id="bWI8IQ_tB8MIXJz7y7Ok-2269" value="" style="line;strokeWidth=2;direction=south;html=1;" vertex="1" parent="1">
          <mxGeometry x="528" y="680" width="10" height="60" as="geometry" />
        </mxCell>
        <mxCell id="bWI8IQ_tB8MIXJz7y7Ok-2272" value="" style="shape=mxgraph.cisco.modems_and_phones.rf_modem;sketch=0;html=1;pointerEvents=1;dashed=0;fillColor=#036897;strokeColor=#ffffff;strokeWidth=2;verticalLabelPosition=bottom;verticalAlign=top;align=center;outlineConnect=0;" vertex="1" parent="1">
          <mxGeometry x="640" y="846" width="82" height="42" as="geometry" />
        </mxCell>
        <mxCell id="bWI8IQ_tB8MIXJz7y7Ok-2273" value="" style="shape=mxgraph.cisco.modems_and_phones.rf_modem;sketch=0;html=1;pointerEvents=1;dashed=0;fillColor=#036897;strokeColor=#ffffff;strokeWidth=2;verticalLabelPosition=bottom;verticalAlign=top;align=center;outlineConnect=0;" vertex="1" parent="1">
          <mxGeometry x="756" y="850" width="82" height="42" as="geometry" />
        </mxCell>
        <mxCell id="bWI8IQ_tB8MIXJz7y7Ok-2276" value="" style="shape=mxgraph.cisco.computers_and_peripherals.laptop;sketch=0;html=1;pointerEvents=1;dashed=0;fillColor=#036897;strokeColor=#ffffff;strokeWidth=2;verticalLabelPosition=bottom;verticalAlign=top;align=center;outlineConnect=0;" vertex="1" parent="1">
          <mxGeometry x="1074" y="820.5" width="90" height="61" as="geometry" />
        </mxCell>
        <mxCell id="bWI8IQ_tB8MIXJz7y7Ok-2278" value="" style="line;strokeWidth=2;direction=south;html=1;" vertex="1" parent="1">
          <mxGeometry x="557" y="738" width="10" height="110" as="geometry" />
        </mxCell>
        <mxCell id="bWI8IQ_tB8MIXJz7y7Ok-2279" value="" style="line;strokeWidth=2;direction=south;html=1;" vertex="1" parent="1">
          <mxGeometry x="675" y="740" width="10" height="110" as="geometry" />
        </mxCell>
        <mxCell id="bWI8IQ_tB8MIXJz7y7Ok-2280" value="" style="line;strokeWidth=2;direction=south;html=1;" vertex="1" parent="1">
          <mxGeometry x="792" y="742" width="10" height="110" as="geometry" />
        </mxCell>
        <mxCell id="bWI8IQ_tB8MIXJz7y7Ok-2281" value="" style="line;strokeWidth=2;direction=south;html=1;" vertex="1" parent="1">
          <mxGeometry x="925.5" y="738" width="10" height="94" as="geometry" />
        </mxCell>
        <mxCell id="bWI8IQ_tB8MIXJz7y7Ok-2282" value="" style="line;strokeWidth=2;direction=south;html=1;" vertex="1" parent="1">
          <mxGeometry x="1119" y="738" width="10" height="84" as="geometry" />
        </mxCell>
      </root>
    </mxGraphModel>
  </diagram>
</mxfile>
